<svg xmlns="http://www.w3.org/2000/svg" width="270" height="272" viewBox="0 0 270 272">
    <g fill="none" fill-rule="evenodd">
        <path fill="#EAEAEA" d="M261.336 0l-30.153 30.154 8.666 8.661L270 8.662 261.336 0zm-69.1 0l-8.668 8.662 30.153 30.153 8.664-8.66L192.235 0zm-22.923 0l-30.151 30.154 8.666 8.661 30.15-30.153L169.314 0zm-69.098 0L91.55 8.662 121.7 38.815l8.666-8.66L100.215 0zm-22.45 0l-30.15 30.154 8.664 8.661L86.43 8.662 77.764 0zM8.661 0L0 8.662l30.151 30.153 8.666-8.66L8.662 0zm222.521 56.28l30.153 30.152L270 77.769l-30.154-30.15-8.663 8.66zm-47.611 21.49l8.664 8.662 30.15-30.153-8.665-8.66-30.15 30.15zm-44.407-21.49l30.15 30.152 8.664-8.663-30.153-30.15-8.66 8.66zM0 77.77l8.662 8.662 30.151-30.153-8.662-8.66L0 77.768zm231.183 44.686l8.663 8.662L270 100.965l-8.664-8.662-30.153 30.153zm-47.611-21.49l30.149 30.152 8.664-8.662-30.15-30.153-8.663 8.662zm-44.407 21.49l8.661 8.662 30.153-30.153-8.664-8.662-30.15 30.153zM0 100.966l30.151 30.152 8.662-8.662-30.15-30.153L0 100.965zm231.183 47.616l30.153 30.153 8.664-8.661-30.151-30.154-8.666 8.662zm-47.615 21.492l8.668 8.66 30.15-30.152-8.665-8.662-30.153 30.154zm-44.406-21.492l30.151 30.153 8.666-8.661-30.151-30.154-8.666 8.662zm-47.611 21.492l8.664 8.66 30.15-30.152-8.665-8.662-30.15 30.154zm-43.936-21.492l30.15 30.153 8.665-8.661-30.15-30.154-8.665 8.662zM0 170.074l8.662 8.66 30.155-30.152-8.666-8.662L0 170.074zm231.183 44.684l8.663 8.663L270 193.268l-8.664-8.66-30.153 30.15zm-47.611-21.49l30.149 30.153 8.664-8.663-30.15-30.15-8.663 8.66zm-44.407 21.49l8.661 8.663 30.153-30.153-8.664-8.66-30.15 30.15zm-47.613-21.49l30.15 30.153 8.664-8.663-30.153-30.15-8.66 8.66zm-43.935 21.49l8.662 8.663 30.15-30.153-8.663-8.66-30.15 30.15zM0 193.268l30.151 30.153 8.662-8.663-30.15-30.15L0 193.267zm231.183 47.617l30.153 30.15 8.664-8.662-30.154-30.15-8.663 8.662zm-47.611 21.488l8.662 8.663 30.151-30.151-8.662-8.663-30.151 30.151zm-44.407-21.488l30.15 30.15 8.662-8.662-30.15-30.15-8.662 8.662zm-47.613 21.488l8.66 8.663 30.152-30.151-8.663-8.663-30.149 30.151zm-43.935-21.488l30.149 30.15 8.662-8.662-30.15-30.15-8.661 8.662zM0 262.373l8.662 8.663 30.151-30.151-8.662-8.663L0 262.373z"/>
        <path fill="#00D9C2" d="M100.213 92.303l30.153 30.153-8.665 8.662-30.149-30.153 8.66-8.662zm-22.447 0l8.662 8.662-30.149 30.153-8.662-8.662 30.149-30.153zM121.7 47.618l8.665 8.661-30.153 30.153-8.66-8.663L121.7 47.62zm-65.422 0L86.43 77.77l-8.663 8.663-30.15-30.153 8.663-8.66z"/>
    </g>
</svg>
