<svg xmlns="http://www.w3.org/2000/svg" width="220" height="23" viewBox="0 0 220 23">
    <g fill="none" fill-rule="evenodd">
        <path d="M0.001 0L220.001 0 220.001 23 0.001 23z"/>
        <path fill="#181919" d="M136.34 1.244v20.8h-1.963v-10.78h-2.238v9.757h-1.963V1.697h1.963v7.876h2.238V1.244h1.963zm44.173 0v20.8h-1.964V11.193h-2.216v9.829h-1.962V1.697h1.962v7.758h2.216v-8.21h1.964zm19.465 0v20.8h-2.032v-20.8h2.032zm20.019 0v20.8h-2.054V10.43h-4.063V8.646h4.063V1.244h2.054zm-64.169 11.78v5.165H144.84v1.975h11.705v1.714h-13.737v-5.283h10.966v-1.857h-11.127v-1.713h13.181zm-26.737-6.378v1.69h-3.833v.024c0 3.95 1.94 6.45 4.087 7.664l-1.2 1.522c-1.546-.976-3.394-3.046-3.878-5.02-.486 2.093-2.24 4.401-4.017 5.52l-1.293-1.404c2.516-1.642 4.294-4.26 4.294-8.21v-.096h-3.786v-1.69h9.626zm85.897-3.236v1.737h-4.456v2c0 4.045 2.332 7.21 5.195 8.852l-1.2 1.571c-1.963-1.166-4.364-3.808-5.033-6.116-.624 2.356-2.702 4.997-5.103 6.545l-1.315-1.548c3.094-1.832 5.355-5.33 5.355-9.281V5.147h-4.616V3.41h11.173zm-28.285 0v11.685c2.655 0 7.019-.332 9.35-.905l.254 1.714c-2.354.595-6.902.953-9.765 1h-1.893V3.41h2.054zm-14.57.071v13.065h-7.942V3.481h7.942zm-1.963 1.69h-4.04v9.71h4.04v-9.71zm-14.342-3.926v10.637h-2.054V6.48h-5.84V4.72h5.84V1.245h2.054zM142.37 2.29v7.14c2.77 0 5.84-.262 8.38-.833.116.571.184 1.143.3 1.738-2.286.523-5.494.808-8.103.88-.877.023-1.755.023-2.586.023V2.291h2.009zm-15.449.762V4.79h-5.31V3.053h5.31z"/>
        <path fill="#00D8C3" d="M70.656 1.218v14.295c0 2.418 1.327 3.496 4.304 3.496 2.975 0 4.302-1.078 4.302-3.496V1.218h3.833v14.456c0 4.37-2.966 6.88-8.135 6.88-5.17 0-8.136-2.51-8.136-6.88V1.218h3.832zM42.77 1.195v3.618H32.142v5.01h10.04v3.647h-10.04v8.474h-3.785V1.194h14.412zm9.558 0v17.101h10.105v3.648H48.43V1.194h3.897zm49.678 11.475l6.44 6.438-2.836 2.836-6.44-6.44 2.836-2.834zm-8.107 0l2.836 2.835-6.438 6.439-2.836-2.834 6.438-6.44zM4.365 1.195L9.37 9.494l4.98-8.3h4.362l-7.478 12.22v8.53h-3.73v-8.53L0 1.194h4.365zM105.609.958l2.836 2.836-6.44 6.441L99.17 7.4l6.438-6.44zm-15.316 0l6.44 6.439-2.835 2.836-6.438-6.439L90.293.959z"/>
    </g>
</svg>
