<svg xmlns="http://www.w3.org/2000/svg" width="180" height="23" viewBox="0 0 180 23">
    <g fill="none" fill-rule="evenodd">
        <path d="M0.001 0L179.001 0 179.001 23 0.001 23z"/>
        <path fill="#181919" d="M128.847 12.484c3.313 0 5.484-1.825 5.484-4.534v-.058c0-2.945-2.143-4.476-5.37-4.476h-5.055v9.068h4.941zM121.65 1.267h7.484c4.512 0 7.483 2.473 7.483 6.536v.059c0 4.446-3.599 6.741-7.855 6.741h-4.855v7.272h-2.257V1.267zM140.726 1.267L143.01 1.267 150.293 12.513 157.577 1.267 159.862 1.267 159.862 21.875 157.606 21.875 157.606 5.183 150.323 16.222 150.209 16.222 142.925 5.213 142.925 21.875 140.726 21.875zM164.2 18.872l1.4-1.707c2.084 1.943 4.083 2.914 6.854 2.914 2.685 0 4.456-1.472 4.456-3.503v-.059c0-1.913-1-3.003-5.198-3.916-4.598-1.03-6.713-2.56-6.713-5.946v-.06c0-3.237 2.771-5.621 6.57-5.621 2.914 0 4.998.853 7.026 2.53L177.281 5.3c-1.856-1.56-3.712-2.237-5.769-2.237-2.599 0-4.256 1.472-4.256 3.327v.059c0 1.942 1.028 3.032 5.427 4.003 4.456 1 6.512 2.68 6.512 5.83v.058c0 3.534-2.856 5.83-6.827 5.83-3.17 0-5.768-1.09-8.168-3.298"/>
        <path fill="#00D8C3" d="M70.892 1.145v14.344c0 2.425 1.332 3.507 4.318 3.507 2.986 0 4.317-1.082 4.317-3.507V1.145h3.846V15.65c0 4.385-2.976 6.901-8.163 6.901s-8.162-2.516-8.162-6.901V1.145h3.844zm31.454 11.49l6.462 6.46-2.846 2.846-6.462-6.463 2.846-2.843zm-8.134 0l2.846 2.846-6.46 6.46-2.846-2.844 6.46-6.462zM4.379 1.12l5.023 8.327 4.996-8.327h4.377l-7.502 12.26v8.56H7.53v-8.56L.001 1.121h4.378zm38.533 0v3.63H32.25v5.027h10.073v3.66H32.25v8.503h-3.797V1.12h14.46zm9.59 0V18.28H62.64v3.66h-14.05V1.122h3.91zm53.46-.237l2.846 2.846-6.462 6.462-2.843-2.845 6.46-6.463zm-15.367 0l6.462 6.46-2.844 2.847-6.46-6.46L90.594.883z"/>
    </g>
</svg>
